<?xml version="1.0" standalone="no"?>
<!DOCTYPE svg PUBLIC "-//W3C//DTD SVG 20010904//EN"
 "http://www.w3.org/TR/2001/REC-SVG-20010904/DTD/svg10.dtd">
<svg version="1.0" xmlns="http://www.w3.org/2000/svg"
 width="98.000000pt" height="85.000000pt" viewBox="0 0 98.000000 85.000000"
 preserveAspectRatio="xMidYMid meet">

<g transform="translate(0.000000,85.000000) scale(0.100000,-0.100000)"
fill="#000000" stroke="none">
<path d="M725 813 c-45 -18 -90 -20 -183 -8 -43 5 -92 4 -149 -5 -71 -11 -90
-11 -117 0 -17 7 -55 15 -84 18 -50 4 -54 2 -92 -36 -51 -51 -56 -102 -17
-179 18 -38 19 -48 9 -94 -19 -80 -15 -200 8 -261 50 -133 191 -211 385 -211
190 -1 322 63 384 186 32 62 35 74 34 160 0 61 -6 108 -17 139 -16 46 -16 49
4 87 21 43 27 120 10 151 -29 54 -112 79 -175 53z m-116 -69 c158 -44 263
-208 248 -387 -11 -131 -75 -210 -202 -250 -144 -45 -349 -20 -437 53 -147
122 -118 418 53 536 89 62 223 81 338 48z"/>
<path d="M598 504 c-76 -41 -62 -121 40 -228 64 -67 126 -72 174 -12 22 26 24
106 4 144 -30 57 -111 112 -163 112 -15 -1 -40 -7 -55 -16z m77 -78 c0 -36
-27 -56 -52 -40 -40 25 -20 77 26 72 21 -2 26 -8 26 -32z"/>
<path d="M245 485 c-127 -77 -121 -255 9 -255 52 0 166 132 166 193 0 18 -10
39 -29 58 -38 37 -89 39 -146 4z m125 -45 c8 -14 8 -26 0 -40 -19 -35 -80 -20
-80 20 0 40 61 55 80 20z"/>
<path d="M440 330 c-11 -11 -20 -27 -20 -35 0 -25 38 -55 70 -55 31 0 70 30
70 54 0 21 -48 56 -76 56 -13 0 -33 -9 -44 -20z"/>
<path d="M393 207 c-8 -13 31 -45 63 -53 55 -14 152 32 125 59 -7 7 -16 6 -29
-6 -30 -27 -73 -30 -115 -9 -24 13 -39 16 -44 9z"/>
</g>
</svg>
